<svg xmlns="http://www.w3.org/2000/svg" width="32" height="32" viewBox="0 0 32 32" fill="none">
  <path d="M27.8381 21.2163L23.4161 15.5359H25.6925C25.8361 15.5359 25.9769 15.4957 26.0989 15.4198C26.2208 15.3439 26.3191 15.2354 26.3825 15.1065C26.446 14.9776 26.472 14.8335 26.4578 14.6906C26.4436 14.5476 26.3896 14.4115 26.3019 14.2977L18.6114 4.30003C18.5396 4.20669 18.4473 4.13109 18.3416 4.07907C18.2359 4.02705 18.1197 4 18.0019 4C17.8841 4 17.7679 4.02705 17.6623 4.07907C17.5566 4.13109 17.4643 4.20669 17.3925 4.30003L9.70192 14.2977C9.6143 14.4115 9.5603 14.5476 9.54606 14.6906C9.53182 14.8335 9.55789 14.9776 9.62133 15.1065C9.68477 15.2354 9.78304 15.3439 9.905 15.4198C10.027 15.4957 10.1677 15.5359 10.3114 15.5359H12.5839L8.16189 21.2163C8.07332 21.3302 8.01859 21.4668 8.00396 21.6104C7.98933 21.7539 8.0154 21.8987 8.07917 22.0282C8.14295 22.1576 8.24186 22.2665 8.36461 22.3424C8.48736 22.4183 8.62898 22.4582 8.77329 22.4574H17.2329V26.3026C17.2329 26.5066 17.3139 26.7022 17.4581 26.8464C17.6024 26.9907 17.798 27.0717 18.0019 27.0717C18.2059 27.0717 18.4015 26.9907 18.5457 26.8464C18.69 26.7022 18.771 26.5066 18.771 26.3026V22.4574H27.2306C27.3745 22.4574 27.5157 22.4171 27.6378 22.3409C27.76 22.2647 27.8584 22.1558 27.9217 22.0265C27.985 21.8971 28.0107 21.7526 27.9959 21.6094C27.9812 21.4662 27.9265 21.33 27.8381 21.2163ZM10.346 20.9193L14.7681 15.2388C14.8566 15.1249 14.9114 14.9884 14.926 14.8448C14.9406 14.7012 14.9146 14.5564 14.8508 14.427C14.787 14.2975 14.6881 14.1886 14.5653 14.1127C14.4426 14.0368 14.301 13.997 14.1567 13.9978H11.8735L18.0019 6.0304L24.1303 13.9978H21.8472C21.7033 13.9979 21.5623 14.0384 21.4403 14.1146C21.3182 14.1909 21.22 14.2998 21.1568 14.4291C21.0936 14.5584 21.068 14.7028 21.0828 14.846C21.0976 14.9891 21.1523 15.1252 21.2406 15.2388L25.6578 20.9193H10.346Z" fill="#FCFCFD"/>
  <path d="M23.9223 22.0298C23.859 22.1593 23.7607 22.2685 23.6385 22.3448C23.5162 22.4211 23.375 22.4616 23.2309 22.4616H14.769V26.3077C14.769 26.5117 14.688 26.7074 14.5437 26.8516C14.3995 26.9959 14.2038 27.0769 13.9998 27.0769C13.7958 27.0769 13.6001 26.9959 13.4558 26.8516C13.3116 26.7074 13.2305 26.5117 13.2305 26.3077V22.4616H4.76868C4.62474 22.4614 4.48372 22.421 4.36164 22.3447C4.23957 22.2684 4.14134 22.1594 4.07814 22.0301C4.01493 21.9008 3.98927 21.7563 4.00408 21.6132C4.0189 21.47 4.07358 21.3339 4.16193 21.2202L8.58517 15.5385H6.3072C6.16351 15.5385 6.02269 15.4983 5.9007 15.4224C5.7787 15.3465 5.68041 15.2379 5.61695 15.109C5.55349 14.9801 5.52741 14.836 5.54166 14.693C5.5559 14.55 5.60991 14.4139 5.69756 14.3001L13.3902 4.3001C13.462 4.20673 13.5543 4.13112 13.66 4.07909C13.7657 4.02706 13.882 4 13.9998 4C14.1176 4 14.2338 4.02706 14.3395 4.07909C14.4452 4.13112 14.5376 4.20673 14.6094 4.3001L22.302 14.3001C22.3897 14.4139 22.4437 14.55 22.4579 14.693C22.4722 14.836 22.4461 14.9801 22.3826 15.109C22.3192 15.2379 22.2209 15.3465 22.0989 15.4224C21.9769 15.4983 21.8361 15.5385 21.6924 15.5385H19.4192L23.8376 21.2202C23.9261 21.3337 23.9809 21.4698 23.9958 21.6129C24.0108 21.756 23.9853 21.9005 23.9223 22.0298Z" fill="#FCFCFD"/>
</svg>