<svg width="18" height="16" viewBox="0 0 18 16" fill="none" xmlns="http://www.w3.org/2000/svg">
<path d="M0.000387192 8.34034C0.000387192 8.54137 0.0794048 8.73416 0.220057 8.87631C0.360708 9.01846 0.551476 9.09832 0.750387 9.09832H15.4401L9.96976 14.6259C9.90008 14.6963 9.8448 14.7799 9.80709 14.8719C9.76938 14.9639 9.74997 15.0626 9.74997 15.1622C9.74997 15.2617 9.76938 15.3604 9.80709 15.4524C9.8448 15.5444 9.90008 15.628 9.96976 15.6984C10.0394 15.7688 10.1222 15.8247 10.2132 15.8628C10.3043 15.9009 10.4018 15.9206 10.5004 15.9206C10.5989 15.9206 10.6965 15.9009 10.7876 15.8628C10.8786 15.8247 10.9613 15.7688 11.031 15.6984L17.781 8.87661C17.8507 8.80622 17.9061 8.72262 17.9438 8.6306C17.9815 8.53858 18.001 8.43995 18.001 8.34034C18.001 8.24073 17.9815 8.1421 17.9438 8.05008C17.9061 7.95806 17.8507 7.87447 17.781 7.80407L11.031 0.982262C10.8903 0.840034 10.6994 0.760132 10.5004 0.760132C10.3014 0.760132 10.1105 0.840034 9.96976 0.982262C9.82903 1.12449 9.74997 1.31739 9.74997 1.51853C9.74997 1.71967 9.82903 1.91257 9.96976 2.0548L15.4401 7.58236H0.750387C0.551476 7.58236 0.360708 7.66222 0.220057 7.80437C0.0794048 7.94652 0.000387192 8.13931 0.000387192 8.34034Z" fill="white"/>
</svg>
