<svg width="24" height="24" viewBox="0 0 24 24" fill="none" xmlns="http://www.w3.org/2000/svg">
<path d="M21.8652 16.347L18.1802 11.6133H20.0771C20.1969 11.6133 20.3142 11.5798 20.4158 11.5165C20.5174 11.4533 20.5993 11.3628 20.6522 11.2554C20.7051 11.148 20.7268 11.028 20.7149 10.9088C20.7031 10.7897 20.6581 10.6763 20.585 10.5815L14.1763 2.25003C14.1164 2.17224 14.0395 2.10924 13.9514 2.06589C13.8634 2.02254 13.7666 2 13.6684 2C13.5702 2 13.4734 2.02254 13.3854 2.06589C13.2973 2.10924 13.2204 2.17224 13.1605 2.25003L6.75176 10.5815C6.67874 10.6763 6.63374 10.7897 6.62187 10.9088C6.61 11.028 6.63173 11.148 6.6846 11.2554C6.73747 11.3628 6.81936 11.4533 6.92099 11.5165C7.02263 11.5798 7.13995 11.6133 7.25965 11.6133H9.15344L5.46841 16.347C5.3946 16.4419 5.34899 16.5557 5.3368 16.6754C5.32461 16.795 5.34633 16.9157 5.39947 17.0235C5.45262 17.1314 5.53505 17.2222 5.63734 17.2854C5.73962 17.3487 5.85764 17.3819 5.9779 17.3812H13.0275V20.5856C13.0275 20.7556 13.095 20.9186 13.2152 21.0388C13.3354 21.1589 13.4984 21.2265 13.6684 21.2265C13.8384 21.2265 14.0014 21.1589 14.1216 21.0388C14.2418 20.9186 14.3093 20.7556 14.3093 20.5856V17.3812H21.3589C21.4789 17.3812 21.5965 17.3476 21.6983 17.2841C21.8001 17.2207 21.8821 17.1299 21.9348 17.0221C21.9876 16.9143 22.009 16.7939 21.9967 16.6746C21.9844 16.5552 21.9388 16.4417 21.8652 16.347ZM7.28849 16.0994L10.9735 11.3657C11.0473 11.2708 11.0929 11.157 11.1051 11.0373C11.1173 10.9177 11.0956 10.797 11.0425 10.6892C10.9893 10.5813 10.9069 10.4905 10.8046 10.4273C10.7023 10.364 10.5843 10.3309 10.464 10.3315H8.56143L13.6684 3.692L18.7754 10.3315H16.8728C16.7529 10.3316 16.6354 10.3653 16.5337 10.4289C16.432 10.4924 16.3501 10.5832 16.2975 10.691C16.2448 10.7987 16.2234 10.9191 16.2358 11.0383C16.2481 11.1576 16.2937 11.2711 16.3673 11.3657L20.0483 16.0994H7.28849Z" fill="#FCFCFD"/>
<path d="M18.6018 17.0249C18.5491 17.1328 18.4672 17.2238 18.3653 17.2874C18.2635 17.351 18.1458 17.3847 18.0257 17.3847H10.9742V20.5898C10.9742 20.7598 10.9066 20.9229 10.7864 21.0431C10.6662 21.1633 10.5031 21.2308 10.3331 21.2308C10.1631 21.2308 10.0001 21.1633 9.87983 21.0431C9.75961 20.9229 9.69208 20.7598 9.69208 20.5898V17.3847H2.64057C2.52061 17.3846 2.40309 17.3508 2.30137 17.2873C2.19964 17.2237 2.11779 17.1329 2.06511 17.0251C2.01244 16.9174 1.99106 16.797 2.0034 16.6777C2.01575 16.5584 2.06132 16.4449 2.13494 16.3502L5.82096 11.6155H3.92266C3.80292 11.6155 3.68557 11.5819 3.58391 11.5187C3.48224 11.4554 3.40033 11.365 3.34745 11.2575C3.29457 11.1501 3.27284 11.03 3.28471 10.9109C3.29658 10.7917 3.34159 10.6783 3.41463 10.5834L9.82509 2.25008C9.88497 2.17228 9.96191 2.10927 10.05 2.06591C10.1381 2.02255 10.2349 2 10.3331 2C10.4313 2 10.5282 2.02255 10.6162 2.06591C10.7043 2.10927 10.7813 2.17228 10.8412 2.25008L17.2516 10.5834C17.3247 10.6783 17.3697 10.7917 17.3815 10.9109C17.3934 11.03 17.3717 11.1501 17.3188 11.2575C17.2659 11.365 17.184 11.4554 17.0823 11.5187C16.9807 11.5819 16.8633 11.6155 16.7436 11.6155H14.8493L18.5313 16.3502C18.605 16.4448 18.6507 16.5582 18.6631 16.6775C18.6756 16.7967 18.6543 16.9171 18.6018 17.0249Z" fill="#FCFCFD"/>
</svg>
