<svg width="24" height="24" viewBox="0 0 24 24" fill="none" xmlns="http://www.w3.org/2000/svg">
<path d="M20.5153 10.4768L13.0153 3.40059C13.0116 3.39739 13.0082 3.39395 13.005 3.39028C12.7289 3.13916 12.369 3 11.9958 3C11.6225 3 11.2627 3.13916 10.9866 3.39028L10.9763 3.40059L3.48469 10.4768C3.33187 10.6174 3.20989 10.7881 3.12646 10.9782C3.04303 11.1683 2.99997 11.3736 3 11.5812V20.2484C3 20.6462 3.15804 21.0278 3.43934 21.3091C3.72064 21.5904 4.10218 21.7484 4.5 21.7484H9C9.39782 21.7484 9.77936 21.5904 10.0607 21.3091C10.342 21.0278 10.5 20.6462 10.5 20.2484V15.7484H13.5V20.2484C13.5 20.6462 13.658 21.0278 13.9393 21.3091C14.2206 21.5904 14.6022 21.7484 15 21.7484H19.5C19.8978 21.7484 20.2794 21.5904 20.5607 21.3091C20.842 21.0278 21 20.6462 21 20.2484V11.5812C21 11.3736 20.957 11.1683 20.8735 10.9782C20.7901 10.7881 20.6681 10.6174 20.5153 10.4768ZM19.5 20.2484H15V15.7484C15 15.3506 14.842 14.9691 14.5607 14.6877C14.2794 14.4064 13.8978 14.2484 13.5 14.2484H10.5C10.1022 14.2484 9.72064 14.4064 9.43934 14.6877C9.15804 14.9691 9 15.3506 9 15.7484V20.2484H4.5V11.5812L4.51031 11.5718L12 4.49841L19.4906 11.57L19.5009 11.5793L19.5 20.2484Z" fill="#344054"/>
</svg>
