<svg width="24" height="24" viewBox="0 0 24 24" fill="none" xmlns="http://www.w3.org/2000/svg">
<path d="M13.4419 1.67329C13.3494 1.59642 13.2398 1.5429 13.1224 1.51726C13.0049 1.49161 12.883 1.49459 12.7669 1.52593C12.6508 1.55727 12.544 1.61606 12.4554 1.69734C12.3668 1.77862 12.299 1.88002 12.2578 1.99297L10.1953 7.65641L7.93031 5.46172C7.85425 5.38795 7.76341 5.33113 7.66379 5.29501C7.56417 5.25889 7.45802 5.24429 7.35235 5.25217C7.24667 5.26005 7.14387 5.29024 7.05071 5.34074C6.95755 5.39124 6.87615 5.46091 6.81188 5.54516C4.78125 8.20579 3.75 10.8823 3.75 13.4998C3.75 15.6879 4.61919 17.7863 6.16637 19.3335C7.71354 20.8807 9.81196 21.7498 12 21.7498C14.188 21.7498 16.2865 20.8807 17.8336 19.3335C19.3808 17.7863 20.25 15.6879 20.25 13.4998C20.25 7.92641 15.4884 3.37485 13.4419 1.67329Z" fill="#FCFCFD"/>
</svg>
