<svg xmlns="http://www.w3.org/2000/svg" width="24" height="24" viewBox="0 0 24 24" fill="none">
<path d="M21.8657 16.347L18.1806 11.6133H20.0776C20.1973 11.6133 20.3147 11.5798 20.4163 11.5165C20.5179 11.4533 20.5998 11.3628 20.6527 11.2554C20.7056 11.148 20.7273 11.028 20.7154 10.9088C20.7035 10.7897 20.6585 10.6763 20.5855 10.5815L14.1768 2.25003C14.1169 2.17224 14.04 2.10924 13.9519 2.06589C13.8639 2.02254 13.767 2 13.6689 2C13.5707 2 13.4739 2.02254 13.3858 2.06589C13.2978 2.10924 13.2209 2.17224 13.161 2.25003L6.75225 10.5815C6.67923 10.6763 6.63423 10.7897 6.62236 10.9088C6.61049 11.028 6.63222 11.148 6.68509 11.2554C6.73795 11.3628 6.81984 11.4533 6.92148 11.5165C7.02312 11.5798 7.14043 11.6133 7.26014 11.6133H9.15393L5.4689 16.347C5.39508 16.4419 5.34948 16.5557 5.33729 16.6754C5.3251 16.795 5.34682 16.9157 5.39996 17.0235C5.45311 17.1314 5.53554 17.2222 5.63782 17.2854C5.74011 17.3487 5.85813 17.3819 5.97839 17.3812H13.028V20.5856C13.028 20.7556 13.0955 20.9186 13.2157 21.0388C13.3359 21.1589 13.4989 21.2265 13.6689 21.2265C13.8389 21.2265 14.0019 21.1589 14.1221 21.0388C14.2422 20.9186 14.3098 20.7556 14.3098 20.5856V17.3812H21.3594C21.4794 17.3812 21.597 17.3476 21.6988 17.2841C21.8006 17.2207 21.8826 17.1299 21.9353 17.0221C21.9881 16.9143 22.0095 16.7939 21.9972 16.6746C21.9849 16.5552 21.9393 16.4417 21.8657 16.347ZM7.28898 16.0994L10.974 11.3657C11.0478 11.2708 11.0934 11.157 11.1056 11.0373C11.1178 10.9177 11.0961 10.797 11.0429 10.6892C10.9898 10.5813 10.9074 10.4905 10.8051 10.4273C10.7028 10.364 10.5848 10.3309 10.4645 10.3315H8.56192L13.6689 3.692L18.7759 10.3315H16.8733C16.7533 10.3316 16.6359 10.3653 16.5342 10.4289C16.4325 10.4924 16.3506 10.5832 16.298 10.691C16.2453 10.7987 16.2239 10.9191 16.2363 11.0383C16.2486 11.1576 16.2942 11.2711 16.3678 11.3657L20.0488 16.0994H7.28898Z" fill="#101828"/>
<path d="M18.6018 17.0249C18.5491 17.1328 18.4672 17.2238 18.3653 17.2874C18.2635 17.351 18.1458 17.3847 18.0257 17.3847H10.9742V20.5898C10.9742 20.7598 10.9066 20.9229 10.7864 21.0431C10.6662 21.1633 10.5031 21.2308 10.3331 21.2308C10.1631 21.2308 10.0001 21.1633 9.87983 21.0431C9.75961 20.9229 9.69208 20.7598 9.69208 20.5898V17.3847H2.64057C2.52061 17.3846 2.40309 17.3508 2.30137 17.2873C2.19964 17.2237 2.11779 17.1329 2.06511 17.0251C2.01244 16.9174 1.99106 16.797 2.0034 16.6777C2.01575 16.5584 2.06132 16.4449 2.13494 16.3502L5.82096 11.6155H3.92266C3.80292 11.6155 3.68557 11.5819 3.58391 11.5187C3.48224 11.4554 3.40033 11.365 3.34745 11.2575C3.29457 11.1501 3.27284 11.03 3.28471 10.9109C3.29658 10.7917 3.34159 10.6783 3.41463 10.5834L9.82509 2.25008C9.88497 2.17228 9.96191 2.10927 10.05 2.06591C10.1381 2.02255 10.2349 2 10.3331 2C10.4313 2 10.5282 2.02255 10.6162 2.06591C10.7043 2.10927 10.7813 2.17228 10.8412 2.25008L17.2516 10.5834C17.3247 10.6783 17.3697 10.7917 17.3815 10.9109C17.3934 11.03 17.3717 11.1501 17.3188 11.2575C17.2659 11.365 17.184 11.4554 17.0823 11.5187C16.9807 11.5819 16.8633 11.6155 16.7436 11.6155H14.8493L18.5313 16.3502C18.605 16.4448 18.6507 16.5582 18.6631 16.6775C18.6756 16.7967 18.6543 16.9171 18.6018 17.0249Z" fill="#101828"/>
</svg>