<svg width="56" height="14" viewBox="0 0 56 14" fill="none" xmlns="http://www.w3.org/2000/svg">
<path d="M9.35 0.154999V11H8.315C8.155 11 8.02 10.975 7.91 10.925C7.805 10.87 7.7025 10.78 7.6025 10.655L1.94 3.425C1.97 3.755 1.985 4.06 1.985 4.34V11H0.2075V0.154999H1.265C1.35 0.154999 1.4225 0.159999 1.4825 0.169999C1.5475 0.174999 1.6025 0.189999 1.6475 0.214999C1.6975 0.235 1.745 0.2675 1.79 0.312499C1.835 0.3525 1.885 0.407499 1.94 0.477499L7.625 7.7375C7.61 7.5625 7.5975 7.39 7.5875 7.22C7.5775 7.05 7.5725 6.8925 7.5725 6.7475V0.154999H9.35ZM16.1957 6.2675C16.1957 6.0275 16.1607 5.8025 16.0907 5.5925C16.0257 5.3775 15.9257 5.19 15.7907 5.03C15.6557 4.87 15.4832 4.745 15.2732 4.655C15.0682 4.56 14.8282 4.5125 14.5532 4.5125C14.0182 4.5125 13.5957 4.665 13.2857 4.97C12.9807 5.275 12.7857 5.7075 12.7007 6.2675H16.1957ZM12.6632 7.385C12.6932 7.78 12.7632 8.1225 12.8732 8.4125C12.9832 8.6975 13.1282 8.935 13.3082 9.125C13.4882 9.31 13.7007 9.45 13.9457 9.545C14.1957 9.635 14.4707 9.68 14.7707 9.68C15.0707 9.68 15.3282 9.645 15.5432 9.575C15.7632 9.505 15.9532 9.4275 16.1132 9.3425C16.2782 9.2575 16.4207 9.18 16.5407 9.11C16.6657 9.04 16.7857 9.005 16.9007 9.005C17.0557 9.005 17.1707 9.0625 17.2457 9.1775L17.7782 9.8525C17.5732 10.0925 17.3432 10.295 17.0882 10.46C16.8332 10.62 16.5657 10.75 16.2857 10.85C16.0107 10.945 15.7282 11.0125 15.4382 11.0525C15.1532 11.0925 14.8757 11.1125 14.6057 11.1125C14.0707 11.1125 13.5732 11.025 13.1132 10.85C12.6532 10.67 12.2532 10.4075 11.9132 10.0625C11.5732 9.7125 11.3057 9.2825 11.1107 8.7725C10.9157 8.2575 10.8182 7.6625 10.8182 6.9875C10.8182 6.4625 10.9032 5.97 11.0732 5.51C11.2432 5.045 11.4857 4.6425 11.8007 4.3025C12.1207 3.9575 12.5082 3.685 12.9632 3.485C13.4232 3.285 13.9407 3.185 14.5157 3.185C15.0007 3.185 15.4482 3.2625 15.8582 3.4175C16.2682 3.5725 16.6207 3.8 16.9157 4.1C17.2107 4.395 17.4407 4.76 17.6057 5.195C17.7757 5.625 17.8607 6.1175 17.8607 6.6725C17.8607 6.9525 17.8307 7.1425 17.7707 7.2425C17.7107 7.3375 17.5957 7.385 17.4257 7.385H12.6632ZM21.7427 11.12C21.0727 11.12 20.5577 10.9325 20.1977 10.5575C19.8427 10.1775 19.6652 9.655 19.6652 8.99V4.6925H18.8777C18.7777 4.6925 18.6927 4.66 18.6227 4.595C18.5527 4.53 18.5177 4.4325 18.5177 4.3025V3.5675L19.7552 3.365L20.1452 1.265C20.1702 1.165 20.2177 1.0875 20.2877 1.0325C20.3577 0.9775 20.4477 0.95 20.5577 0.95H21.5177V3.3725H23.5727V4.6925H21.5177V8.8625C21.5177 9.1025 21.5752 9.29 21.6902 9.425C21.8102 9.56 21.9727 9.6275 22.1777 9.6275C22.2927 9.6275 22.3877 9.615 22.4627 9.59C22.5427 9.56 22.6102 9.53 22.6652 9.5C22.7252 9.47 22.7777 9.4425 22.8227 9.4175C22.8677 9.3875 22.9127 9.3725 22.9577 9.3725C23.0127 9.3725 23.0577 9.3875 23.0927 9.4175C23.1277 9.4425 23.1652 9.4825 23.2052 9.5375L23.7602 10.4375C23.4902 10.6625 23.1802 10.8325 22.8302 10.9475C22.4802 11.0625 22.1177 11.12 21.7427 11.12ZM31.4038 9.335V11H25.0513V0.154999H27.0688V9.335H31.4038ZM35.5612 3.185C36.1312 3.185 36.6487 3.2775 37.1137 3.4625C37.5837 3.6475 37.9837 3.91 38.3137 4.25C38.6487 4.59 38.9062 5.005 39.0862 5.495C39.2662 5.985 39.3562 6.5325 39.3562 7.1375C39.3562 7.7475 39.2662 8.2975 39.0862 8.7875C38.9062 9.2775 38.6487 9.695 38.3137 10.04C37.9837 10.385 37.5837 10.65 37.1137 10.835C36.6487 11.02 36.1312 11.1125 35.5612 11.1125C34.9862 11.1125 34.4637 11.02 33.9937 10.835C33.5237 10.65 33.1212 10.385 32.7862 10.04C32.4562 9.695 32.1987 9.2775 32.0137 8.7875C31.8337 8.2975 31.7437 7.7475 31.7437 7.1375C31.7437 6.5325 31.8337 5.985 32.0137 5.495C32.1987 5.005 32.4562 4.59 32.7862 4.25C33.1212 3.91 33.5237 3.6475 33.9937 3.4625C34.4637 3.2775 34.9862 3.185 35.5612 3.185ZM35.5612 9.6875C36.2012 9.6875 36.6737 9.4725 36.9787 9.0425C37.2887 8.6125 37.4437 7.9825 37.4437 7.1525C37.4437 6.3225 37.2887 5.69 36.9787 5.255C36.6737 4.82 36.2012 4.6025 35.5612 4.6025C34.9112 4.6025 34.4287 4.8225 34.1137 5.2625C33.8037 5.6975 33.6487 6.3275 33.6487 7.1525C33.6487 7.9775 33.8037 8.6075 34.1137 9.0425C34.4287 9.4725 34.9112 9.6875 35.5612 9.6875ZM43.5234 6.965C43.7534 6.965 43.9534 6.935 44.1234 6.875C44.2934 6.81 44.4334 6.7225 44.5434 6.6125C44.6584 6.5025 44.7434 6.37 44.7984 6.215C44.8584 6.06 44.8884 5.89 44.8884 5.705C44.8884 5.325 44.7734 5.025 44.5434 4.805C44.3184 4.58 43.9784 4.4675 43.5234 4.4675C43.0684 4.4675 42.7259 4.58 42.4959 4.805C42.2709 5.025 42.1584 5.325 42.1584 5.705C42.1584 5.885 42.1859 6.0525 42.2409 6.2075C42.3009 6.3625 42.3859 6.4975 42.4959 6.6125C42.6109 6.7225 42.7534 6.81 42.9234 6.875C43.0984 6.935 43.2984 6.965 43.5234 6.965ZM45.6159 11.345C45.6159 11.195 45.5709 11.0725 45.4809 10.9775C45.3909 10.8825 45.2684 10.81 45.1134 10.76C44.9584 10.705 44.7759 10.665 44.5659 10.64C44.3609 10.615 44.1409 10.5975 43.9059 10.5875C43.6759 10.5725 43.4359 10.56 43.1859 10.55C42.9409 10.54 42.7009 10.52 42.4659 10.49C42.2609 10.605 42.0934 10.74 41.9634 10.895C41.8384 11.05 41.7759 11.23 41.7759 11.435C41.7759 11.57 41.8084 11.695 41.8734 11.81C41.9434 11.93 42.0509 12.0325 42.1959 12.1175C42.3459 12.2025 42.5384 12.2675 42.7734 12.3125C43.0084 12.3625 43.2959 12.3875 43.6359 12.3875C43.9809 12.3875 44.2784 12.36 44.5284 12.305C44.7784 12.255 44.9834 12.1825 45.1434 12.0875C45.3084 11.9975 45.4284 11.8875 45.5034 11.7575C45.5784 11.6325 45.6159 11.495 45.6159 11.345ZM47.4609 3.5675V4.2575C47.4609 4.4775 47.3284 4.6125 47.0634 4.6625L46.3734 4.79C46.4784 5.055 46.5309 5.345 46.5309 5.66C46.5309 6.04 46.4534 6.385 46.2984 6.695C46.1484 7 45.9384 7.26 45.6684 7.475C45.3984 7.69 45.0784 7.8575 44.7084 7.9775C44.3434 8.0925 43.9484 8.15 43.5234 8.15C43.3734 8.15 43.2284 8.1425 43.0884 8.1275C42.9484 8.1125 42.8109 8.0925 42.6759 8.0675C42.4359 8.2125 42.3159 8.375 42.3159 8.555C42.3159 8.71 42.3859 8.825 42.5259 8.9C42.6709 8.97 42.8609 9.02 43.0959 9.05C43.3309 9.08 43.5984 9.1 43.8984 9.11C44.1984 9.115 44.5059 9.13 44.8209 9.155C45.1359 9.18 45.4434 9.225 45.7434 9.29C46.0434 9.35 46.3109 9.4475 46.5459 9.5825C46.7809 9.7175 46.9684 9.9025 47.1084 10.1375C47.2534 10.3675 47.3259 10.665 47.3259 11.03C47.3259 11.37 47.2409 11.7 47.0709 12.02C46.9059 12.34 46.6634 12.625 46.3434 12.875C46.0284 13.125 45.6384 13.325 45.1734 13.475C44.7134 13.63 44.1884 13.7075 43.5984 13.7075C43.0184 13.7075 42.5134 13.65 42.0834 13.535C41.6534 13.425 41.2959 13.275 41.0109 13.085C40.7259 12.9 40.5134 12.685 40.3734 12.44C40.2334 12.195 40.1634 11.94 40.1634 11.675C40.1634 11.315 40.2709 11.015 40.4859 10.775C40.7059 10.53 41.0059 10.335 41.3859 10.19C41.1809 10.085 41.0184 9.945 40.8984 9.77C40.7784 9.595 40.7184 9.365 40.7184 9.08C40.7184 8.965 40.7384 8.8475 40.7784 8.7275C40.8234 8.6025 40.8859 8.48 40.9659 8.36C41.0509 8.24 41.1559 8.1275 41.2809 8.0225C41.4059 7.9125 41.5534 7.815 41.7234 7.73C41.3334 7.52 41.0259 7.24 40.8009 6.89C40.5809 6.54 40.4709 6.13 40.4709 5.66C40.4709 5.28 40.5459 4.9375 40.6959 4.6325C40.8509 4.3225 41.0634 4.06 41.3334 3.845C41.6084 3.625 41.9309 3.4575 42.3009 3.3425C42.6759 3.2275 43.0834 3.17 43.5234 3.17C43.8534 3.17 44.1634 3.205 44.4534 3.275C44.7434 3.34 45.0084 3.4375 45.2484 3.5675H47.4609ZM51.9089 3.185C52.4789 3.185 52.9964 3.2775 53.4614 3.4625C53.9314 3.6475 54.3314 3.91 54.6614 4.25C54.9964 4.59 55.2539 5.005 55.4339 5.495C55.6139 5.985 55.7039 6.5325 55.7039 7.1375C55.7039 7.7475 55.6139 8.2975 55.4339 8.7875C55.2539 9.2775 54.9964 9.695 54.6614 10.04C54.3314 10.385 53.9314 10.65 53.4614 10.835C52.9964 11.02 52.4789 11.1125 51.9089 11.1125C51.3339 11.1125 50.8114 11.02 50.3414 10.835C49.8714 10.65 49.4689 10.385 49.1339 10.04C48.8039 9.695 48.5464 9.2775 48.3614 8.7875C48.1814 8.2975 48.0914 7.7475 48.0914 7.1375C48.0914 6.5325 48.1814 5.985 48.3614 5.495C48.5464 5.005 48.8039 4.59 49.1339 4.25C49.4689 3.91 49.8714 3.6475 50.3414 3.4625C50.8114 3.2775 51.3339 3.185 51.9089 3.185ZM51.9089 9.6875C52.5489 9.6875 53.0214 9.4725 53.3264 9.0425C53.6364 8.6125 53.7914 7.9825 53.7914 7.1525C53.7914 6.3225 53.6364 5.69 53.3264 5.255C53.0214 4.82 52.5489 4.6025 51.9089 4.6025C51.2589 4.6025 50.7764 4.8225 50.4614 5.2625C50.1514 5.6975 49.9964 6.3275 49.9964 7.1525C49.9964 7.9775 50.1514 8.6075 50.4614 9.0425C50.7764 9.4725 51.2589 9.6875 51.9089 9.6875Z" fill="#334456"/>
</svg>
