<svg xmlns="http://www.w3.org/2000/svg" width="24" height="24" viewBox="0 0 24 24" fill="none">
<path d="M22.5 8.8125C22.5 15.375 12.7697 20.6869 12.3553 20.9062C12.2461 20.965 12.124 20.9958 12 20.9958C11.876 20.9958 11.7539 20.965 11.6447 20.9062C11.2303 20.6869 1.5 15.375 1.5 8.8125C1.50174 7.27146 2.11468 5.79404 3.20436 4.70436C4.29404 3.61468 5.77146 3.00174 7.3125 3C9.24844 3 10.9434 3.8325 12 5.23969C13.0566 3.8325 14.7516 3 16.6875 3C18.2285 3.00174 19.706 3.61468 20.7956 4.70436C21.8853 5.79404 22.4983 7.27146 22.5 8.8125Z" fill="#101828"/>
</svg>