<svg xmlns="http://www.w3.org/2000/svg" width="26" height="23" viewBox="0 0 26 23" fill="none">
<path d="M26 7.19643C26 15.3214 13.9529 21.898 13.4399 22.1696C13.3047 22.2424 13.1535 22.2805 13 22.2805C12.8465 22.2805 12.6953 22.2424 12.5601 22.1696C12.0471 21.898 0 15.3214 0 7.19643C0.0021505 5.28848 0.761034 3.45929 2.11016 2.11016C3.45929 0.761034 5.28848 0.0021505 7.19643 0C9.5933 0 11.6919 1.03071 13 2.77295C14.3081 1.03071 16.4067 0 18.8036 0C20.7115 0.0021505 22.5407 0.761034 23.8898 2.11016C25.239 3.45929 25.9978 5.28848 26 7.19643Z" fill="white"/>
</svg>