<svg xmlns="http://www.w3.org/2000/svg" width="32" height="32" viewBox="0 0 32 32" fill="none">
<path d="M20.058 23.4346C20.1456 23.569 20.1953 23.7245 20.2018 23.8848C20.2083 24.045 20.1715 24.2041 20.0951 24.3451C20.0187 24.4861 19.9056 24.6039 19.7678 24.686C19.63 24.7681 19.4726 24.8114 19.3122 24.8115H2.89033C2.72993 24.8114 2.57252 24.7681 2.43473 24.686C2.29693 24.6039 2.18386 24.4861 2.10747 24.3451C2.03108 24.2041 1.99421 24.045 2.00074 23.8848C2.00727 23.7245 2.05697 23.569 2.14459 23.4346C3.398 21.5053 5.24163 20.033 7.4004 19.2373C6.20698 18.4428 5.30094 17.2854 4.81623 15.9361C4.33153 14.5868 4.29391 13.1174 4.70893 11.7451C5.12395 10.3728 5.96958 9.17045 7.12077 8.31591C8.27196 7.46138 9.66759 7 11.1013 7C12.535 7 13.9306 7.46138 15.0818 8.31591C16.233 9.17045 17.0786 10.3728 17.4936 11.7451C17.9086 13.1174 17.871 14.5868 17.3863 15.9361C16.9016 17.2854 15.9956 18.4428 14.8022 19.2373C16.9609 20.033 18.8046 21.5053 20.058 23.4346ZM29.8428 23.4179C28.589 21.4967 26.7495 20.0307 24.597 19.2373C26.0059 18.2883 27.0001 16.838 27.3774 15.1818C27.7547 13.5255 27.4867 11.7877 26.6279 10.3221C25.769 8.85646 24.384 7.7732 22.7546 7.2928C21.1252 6.8124 19.374 6.97096 17.8575 7.73621C17.7995 7.76615 17.7488 7.80848 17.709 7.86019C17.6691 7.9119 17.6412 7.97174 17.6271 8.03546C17.6129 8.09917 17.613 8.16522 17.6272 8.22891C17.6415 8.29261 17.6695 8.35239 17.7094 8.40404C18.8371 9.81072 19.4848 11.5415 19.5575 13.343C19.6302 15.1444 19.1241 16.9218 18.1135 18.4148C18.0481 18.5124 18.024 18.6318 18.0463 18.7471C18.0686 18.8623 18.1356 18.9641 18.2326 19.0303C19.5503 19.95 20.6784 21.1151 21.555 22.4618C21.9086 23.0033 22.053 23.6549 21.9613 24.295C21.951 24.3587 21.9546 24.4238 21.9719 24.486C21.9893 24.5481 22.0199 24.6057 22.0617 24.6548C22.1036 24.704 22.1556 24.7434 22.2141 24.7705C22.2727 24.7975 22.3364 24.8115 22.4009 24.8115H29.1126C29.3087 24.8115 29.4993 24.7469 29.6549 24.6275C29.8104 24.5082 29.9223 24.3408 29.973 24.1514C30.0039 24.0269 30.0083 23.8972 29.9859 23.7708C29.9635 23.6445 29.9147 23.5242 29.8428 23.4179Z" fill="white"/>
</svg>