<svg width="18" height="20" viewBox="0 0 18 20" fill="none" xmlns="http://www.w3.org/2000/svg">
<path fill-rule="evenodd" clip-rule="evenodd" d="M3.7289 0.261279C3.90758 0.110775 4.12917 0.0204242 4.36215 0.00307036C4.59513 -0.0142835 4.82765 0.0422424 5.02666 0.164613C8.86552 2.52793 10.9711 5.5179 12.0933 8.80898C12.371 9.62342 12.5877 10.4534 12.7555 11.2934C13.8988 9.3712 15.7255 7.84677 18.4765 6.74678C18.6705 6.66931 18.8824 6.6481 19.0879 6.68556C19.2934 6.72303 19.4842 6.81766 19.6383 6.95859C19.7925 7.09953 19.9038 7.28107 19.9595 7.48239C20.0152 7.6837 20.013 7.89664 19.9532 8.09677L19.7521 8.76787C18.241 13.7989 17.7777 15.34 17.7777 18.8889C17.7777 19.1836 17.6606 19.4662 17.4522 19.6746C17.2439 19.8829 16.9612 20 16.6666 20H3.33334C3.03866 20 2.75605 19.8829 2.54768 19.6746C2.3393 19.4662 2.22224 19.1836 2.22224 18.8889C2.22224 14.5956 1.6978 11.939 0.0567051 7.01789C-0.0100841 6.81692 -0.0180503 6.60106 0.0337451 6.39572C0.0855405 6.19037 0.19494 6.00411 0.349057 5.85887C0.503174 5.71362 0.695589 5.61545 0.903638 5.57591C1.11169 5.53637 1.3267 5.5571 1.52336 5.63568C3.07335 6.25456 4.25111 7.08122 5.13999 8.05788C4.84254 5.81596 4.26237 3.62074 3.41334 1.5246C3.32634 1.3076 3.31001 1.06869 3.36666 0.841871C3.42332 0.615051 3.55008 0.411881 3.7289 0.261279Z" fill="#FCFCFD"/>
</svg>
